<svg width="35" height="34" viewBox="0 0 35 34" fill="none" xmlns="http://www.w3.org/2000/svg">
<path d="M0.219436 34V0.399998H16.1074C19.8194 0.399998 23.0834 1.088 25.8994 2.464C28.7154 3.84 30.9074 5.776 32.4754 8.272C34.0754 10.768 34.8754 13.744 34.8754 17.2C34.8754 20.624 34.0754 23.6 32.4754 26.128C30.9074 28.624 28.7154 30.56 25.8994 31.936C23.0834 33.312 19.8194 34 16.1074 34H0.219436ZM9.72344 26.416H15.7234C17.6434 26.416 19.3074 26.064 20.7154 25.36C22.1554 24.624 23.2754 23.568 24.0754 22.192C24.8754 20.784 25.2754 19.12 25.2754 17.2C25.2754 15.248 24.8754 13.584 24.0754 12.208C23.2754 10.832 22.1554 9.792 20.7154 9.088C19.3074 8.352 17.6434 7.984 15.7234 7.984H9.72344V26.416Z" fill="#EB5E28"/>
</svg>
