<svg width="28" height="35" viewBox="0 0 28 35" fill="none" xmlns="http://www.w3.org/2000/svg">
<path d="M11.4766 35H3.97662L4.0235 29.0938H11.4766C13.1797 29.0938 14.6172 28.7031 15.7891 27.9219C16.961 27.125 17.8516 25.9531 18.461 24.4062C19.0704 22.8438 19.3751 20.9453 19.3751 18.7109V17.1406C19.3751 15.4531 19.2032 13.9688 18.8594 12.6875C18.5157 11.3906 18.0079 10.3047 17.336 9.42969C16.6641 8.55469 15.8282 7.89844 14.8282 7.46094C13.8438 7.02344 12.711 6.80469 11.4297 6.80469H3.836V0.875H11.4297C13.7422 0.875 15.8516 1.26563 17.7579 2.04688C19.6797 2.82812 21.336 3.94531 22.7266 5.39844C24.1329 6.85156 25.2188 8.57031 25.9844 10.5547C26.7501 12.5391 27.1329 14.75 27.1329 17.1875V18.7109C27.1329 21.1328 26.7501 23.3438 25.9844 25.3438C25.2188 27.3281 24.1329 29.0469 22.7266 30.5C21.336 31.9375 19.6876 33.0469 17.7813 33.8281C15.8751 34.6094 13.7735 35 11.4766 35ZM8.31256 0.875V35H0.671936V0.875H8.31256Z" fill="#EB5E28"/>
</svg>
